<svg xmlns="http://www.w3.org/2000/svg" width="681" height="577" viewBox="0 0 681 577">
    <g fill="none" fill-rule="evenodd">
        <g>
            <g transform="translate(0 -1) translate(70.79 316) translate(0 47.282)">
                <path fill="#576D90" d="M363.466 28.982L363.466 90.432 209.05 90.432 209.05 151.891 54.624 151.891 54.624 213.341 517.891 213.341 517.891 28.982zM54.624 152.064L54.624 214.341 0 185.186 0 122.909z"/>
                <path fill="#DCE6F4" d="M54.624 214.341L34.752 203.733 12.893 192.069 0 185.186 0 122.909 25.075 136.291 54.038 151.747 54.624 152.064z" opacity=".49"/>
                <path fill="#576D90" d="M154.416 61.286L209.05 90.432 209.05 151.709 154.416 122.563zM308.842 0L363.466 29.155 363.466 90.432 308.842 61.286z"/>
                <path fill="#DCE6F4" d="M154.416 61.286L209.05 90.432 209.05 151.709 154.416 122.563zM308.842 0L363.466 29.155 363.466 90.432 308.842 61.286z" opacity=".49"/>
                <path fill="#DCE6F4" fill-rule="nonzero" d="M0 122.909L156.173 122.909 209.05 151.709 54.624 152.064zM154.416 61.286L308.842 61.286 363.466 90.432 209.05 90.432zM308.842 0L465.014 0 517.891 28.8 363.466 29.155z"/>
                <ellipse cx="244.848" cy="72.499" fill="#364A6B" fill-rule="nonzero" opacity=".1" rx="31.296" ry="3.35"/>
                <ellipse cx="413.424" cy="12.662" fill="#364A6B" fill-rule="nonzero" opacity=".1" rx="31.296" ry="3.35"/>
                <path fill="#364A6B" fill-rule="nonzero" d="M99.715 149.25l-30.95-1.17c-1.48-.05-2.955.182-4.349.68l-7.085 2.555c-1.783.634-3.693.829-5.568.566-.556-.084-1.117-.126-1.68-.125-5.946.004-10.912 4.534-11.462 10.455l-3.84 40.742-21.888-11.654 6.624-46.263c.86-6.075 6.165-10.523 12.297-10.31l28.205.96 39.696 13.565z" opacity=".2"/>
            </g>
            <g fill="#DCE6F4" fill-rule="nonzero">
                <path d="M52.6 260.506h31.862l.701-1.21 3.101-5.309c10.06-17.219 15.361-36.803 15.36-56.745.003-20.627 10.672-39.785 28.205-50.65 10.87-6.739 19.285-16.796 24-28.685l4.166-10.56L146.45 123.6c-4.198 5.044-9.203 9.355-14.813 12.758l-19.258 11.712c-14.607 8.877-24.698 23.6-27.705 40.426l-1.373 7.68c-2.535 14.22-7.786 27.818-15.466 40.051L52.6 260.506z" transform="translate(0 -1) translate(70.79 316) translate(450.21)"/>
                <path d="M38 260.506h44.986c7.131-15.551 9.438-32.882 6.624-49.757l-2.439-14.64c-2.747-16.372-.672-33.19 5.971-48.403l6.615-15.101c7.171-16.405 9.024-34.645 5.299-52.157L87.92 0l-4.56 71.414c-.763 11.912-4.006 23.534-9.523 34.119l-12.634 24.24c-8.166 15.674-11.284 33.49-8.928 51.005l1.863 13.766c2.247 16.741-.498 33.773-7.892 48.96L38 260.506z" transform="translate(0 -1) translate(70.79 316) translate(450.21)"/>
                <path d="M25.105 25.613l30.163 58.09c6.635 12.79 10.099 26.986 10.1 41.395v11.836c0 5.311-.47 10.612-1.402 15.84l-5.117 28.532c-2.73 15.262-1.466 30.97 3.667 45.6l11.798 33.6h-36.49l-3.84-22.56c-.968-5.83-2.515-11.547-4.617-17.07l-1.545-4.098c-8.007-21.111-7.767-44.463.672-65.405 5.577-13.861 7.612-28.893 5.923-43.738l-9.312-82.022zM2.977 178.723c0 .807 2.083 17.28 3.552 28.877.936 7.295 3.711 14.232 8.064 20.16 5.068 6.905 7.978 15.156 8.361 23.712l.413 9.005H10.686l-2.381-17.568c-.567-4.176-1.738-8.247-3.475-12.087l-.96-2.208c-3.163-6.97-4.422-14.656-3.648-22.272l2.755-27.619z" transform="translate(0 -1) translate(70.79 316) translate(450.21)"/>
                <path d="M57.622 260.506h25.344c7.132-15.551 9.44-32.882 6.624-49.757l-2.438-14.64c-2.741-16.374-.66-33.192 5.99-48.403l6.615-15.101c7.171-16.405 9.024-34.645 5.299-52.157L87.92 0l4.234 76.186c1.138 20.441-3.08 40.826-12.24 59.136-8.168 16.337-12.421 34.352-12.423 52.617 0 2.189.064 4.384.192 6.586l.519 9.1c.898 16.049-1.503 32.11-7.056 47.194l-3.524 9.687z" transform="translate(0 -1) translate(70.79 316) translate(450.21)"/>
            </g>
        </g>
        <g fill-rule="nonzero" transform="translate(0 -1) translate(56)">
            <path fill="#364A6B" d="M173.873 1C118.59 1.018 66.64 27.438 34.064 72.102c-.657.879-1.283 1.774-1.917 2.678-2.512 3.58-4.889 7.241-7.131 11.028-.277.476-.555.967-.848 1.427l-.792 1.418c-.27.491-.547.958-.793 1.418-.166.277-.3.555-.467.848-.166.293-.222.412-.325.61-.253.491-.523.95-.792 1.418-.515.983-1.038 1.965-1.53 2.947l-.736 1.474c-.246.491-.492.983-.706 1.506-.213.522-.49.982-.713 1.505-.222.523-.467 1.006-.713 1.497-.245.492-.467 1.007-.69 1.498l-.49 1.125c-.072.19-.159.356-.238.547-.19.46-.412.927-.602 1.394-.19.468-.412 1.006-.634 1.505v.048c-.182.467-.373.959-.57 1.426 0 0 0 .08-.056.135-.19.491-.404 1.014-.594 1.505-.19.491-.333.84-.492 1.252-.063.135-.11.301-.166.436-.166.467-.357.935-.523 1.37v.056l-.57 1.585c-.159.435-.325.88-.468 1.339-.214.626-.436 1.283-.658 1.909l-.49 1.45v.087c-.143.46-.302.92-.437 1.387 0 .087-.055.166-.079.245-.166.491-.3 1.014-.467 1.537-.167.523-.325 1.062-.492 1.585-.166.523-.324 1.062-.467 1.585-.143.522-.301 1.045-.436 1.584v.143c-.103.412-.214.84-.356 1.283-.048.19-.103.404-.159.602-.11.412-.214.793-.333 1.229v.166c-.142.515-.277 1.062-.388 1.585-.11.522-.222.982-.356 1.473-.034.117-.06.236-.08.357-.11.46-.222.927-.3 1.386 0 .087 0 .167-.056.278-.087.412-.19.84-.278 1.26-.018.143-.045.286-.079.427-.103.491-.19.983-.293 1.482-.222 1.117-.444 2.242-.634 3.328-.079.499-.158.958-.245 1.418 0 .166-.056.333-.08.523-.087.49-.166.958-.245 1.418-.08.46-.167 1.125-.278 1.695-.11.57-.134 1.015-.221 1.506-.03.162-.05.326-.056.491-.047.46-.135.927-.182 1.387-.048.46-.143 1.148-.222 1.727-.08.578-.135 1.149-.19 1.72-.056.57-.111 1.005-.167 1.497 0 .198 0 .356-.055.554 0 .46-.08.927-.135 1.387-.055.46-.11 1.149-.134 1.727-.024.578-.08 1.117-.111 1.695v.135c0 .539-.088 1.062-.111 1.585v.079L1.19 165.3v.405c0 .578-.055 1.148-.087 1.75-.048 1.15-.08 2.322-.103 3.463v3.367c0 2.235.055 4.485.135 6.719.158 4.096.46 8.169.935 12.21.237 2.242.507 4.476.863 6.694.389 2.512.793 5 1.284 7.48C19.77 286.967 89.86 347 174 347c95.549 0 173-77.432 173-172.984S269.398 1 173.873 1zm-.373 312C96.456 313 34 250.544 34 173.5S96.456 34 173.5 34 313 96.456 313 173.5c0 36.998-14.697 72.48-40.859 98.641C245.981 298.303 210.498 313 173.5 313z" opacity=".2"/>
            <circle cx="173.606" cy="173.616" r="107" fill="#FFF" opacity=".1"/>
            <path fill="#364A6B" d="M174 35C97.232 35 35 97.232 35 174s62.232 139 139 139 139-62.232 139-139c0-36.865-14.645-72.22-40.712-98.288C246.22 49.645 210.865 35 174 35zm.01 245c-42.874.003-81.528-25.821-97.937-65.431-16.408-39.61-7.34-85.203 22.976-115.52 30.317-30.316 75.91-39.384 115.52-22.976 39.61 16.409 65.434 55.063 65.431 97.936-.004 58.536-47.455 105.987-105.99 105.991z" opacity=".1"/>
        </g>
        <g transform="translate(0 -1) translate(.344 84.202)">
            <path fill="#1AC1CE" fill-rule="nonzero" d="M6.539 161.614h-.615c-.086-.74-.192-1.478-.307-2.218l.922 2.218z"/>
            <path fill="#DCE6F4" fill-rule="nonzero" d="M4.312 432.296l4.617-3.034 14.4 7.315c-1.21 1.056.519 2.045-.259 3.495-.716 1.816-1.215 3.71-1.488 5.644-.912 5.079.25 15.754 1.651 22.781.192 2.074 2.103 4.407 1.181 5.827-1.289 1.515-2.86 2.764-4.627 3.677 0 0-10.82-5.654-14.707-25.517-1.652-8.323-6.586-12.902-4.628-17.77l3.86-2.418z"/>
            <path fill="#FF9873" fill-rule="nonzero" d="M33.61 423.56l-.806 1.603-.681 1.536-.221.518-2.66 5.818-1.756 3.84c-1.501.472-3.092.59-4.646.345-1.437-.262-2.769-.928-3.84-1.92-.605-.56-1.146-1.184-1.613-1.862-1.456-2.303-2.54-4.82-3.216-7.46 0-.124-.067-.24-.106-.354.021-.133.05-.265.087-.394.278-1.133 1.142-4.349 1.142-4.349l1.546-5.347v-.125l.288-1.19.662-2.63c0 .143 9.754 7.468 13.91 10.56l1.91 1.41z"/>
            <path fill="#DB6D4F" fill-rule="nonzero" d="M32.65 425.124l-.671 1.546-.221.509-1.267 3.072c-4.088.143-7.996-1.681-10.512-4.906-.115-.192-.269-.211-.384-.393-1.176-1.013-2.837-1.242-4.243-.586-.295.137-.567.318-.807.538l-.163.144c-.054.052-.102.11-.144.172.278-1.132 1.142-4.348 1.142-4.348l1.546-5.348v-.124l.288-1.19 1.517 2.438 12.144 7.382 1.776 1.094z"/>
            <path fill="#576D90" fill-rule="nonzero" d="M29.31 433.035l-3.34 7.497s-.538 4.061-.865 5.616c-.92 7.419-1.037 14.915-.345 22.359.182 2.131.45 4.589-.442 5.856-3.814-1.927-6.978-4.932-9.1-8.64-2.964-4.945-4.921-10.425-5.76-16.128-.162-1.038-.39-2.064-.682-3.072-1.479-5.05-4.148-8.554-4.253-11.885-.01-.176-.01-.352 0-.528.038-.74.218-1.467.528-2.14l9.062-6.346.115-.077.96-3.975c-.158 2.082.236 4.168 1.143 6.048.153 0 .153 0 .125.183 1.271 2.162 3.339 3.74 5.76 4.397h.048c2.271.737 4.665 1.02 7.046.835z"/>
            <path fill="#364A6B" fill-rule="nonzero" d="M22.33 432.21l-.153.22c-1.374 2.028-3.51 3.413-5.923 3.84-.96.26-3.946-.355-5.26 1.46-2.218 2.88.172 5.145.47 11.471.153 3.735 1.132 11.3 3.724 15.86.24.364.173.662 0 .633-2.963-4.944-4.92-10.425-5.76-16.128-.16-1.038-.388-2.064-.681-3.072-1.45-5.04-4.061-8.688-4.253-11.885-.01-.176-.01-.352 0-.528.012-.744.192-1.476.528-2.14l9.062-6.346 1.104-4.051c-.163 2.09.231 4.188 1.143 6.076.153 0 .153 0 .125.183 1.271 2.162 3.339 3.74 5.76 4.397l.115.01zM84.193 254.82c.067 6.596.519 52.666.058 61.44-.519 8.206-2.697 16.22-6.403 23.559C66.328 364 36.942 425.864 36.49 426.67c-.147.04-.3.059-.451.058-1.274.186-2.567.186-3.84 0-.064.01-.129.01-.192 0-.446-.06-.886-.156-1.316-.288l-.441-.096-.346-.125c-.98-.322-1.922-.747-2.813-1.267-.45-.26-.892-.548-1.334-.855-2.774-1.992-5.142-4.494-6.98-7.373-.537-.806-1.036-1.632-1.516-2.438-2.234-3.94-4-8.13-5.26-12.48 8.169-2.14 13.89-14.266 18.911-28.3 5.12-16.814 11.005-33.306 17.655-49.48.864-12.988-1.575-27.484-1.978-29.577-.72-3.936-2.774-15.955-4.944-28.694v-.125c-.442-2.611-.893-5.242-1.325-7.834-2.342-13.766-4.502-26.563-4.944-29.078-.547-2.813 1.575-4.723 1.45-6.557-.442-6.23-1.21-8.822.384-18.345 12.028-.819 23.999-2.322 35.856-4.503 1.334-.25 2.65-.518 3.974-.797l17.405 5.885c.106.115.202.24.317.355-8.919 14.026-10.56 49.364-10.56 49.364s-.02.22-.01.7z"/>
            <path fill="#364A6B" fill-rule="nonzero" d="M77.934 254.955c.058 6.595.346 52.665-.154 61.44-.528 9.552-3.398 17.097-6.48 23.539-9.782 20.4-32.438 67.622-39.513 82.282-.336.7-.643 1.324-.912 1.872l-1.018 2.112c-.98-.322-1.922-.747-2.813-1.268-.45-.259-.892-.547-1.334-.854-2.774-1.992-5.142-4.494-6.98-7.373-.537-.806-1.036-1.632-1.516-2.438-2.234-3.941-4-8.13-5.26-12.48 8.169-2.141 13.89-14.266 18.911-28.301 5.12-16.813 11.005-33.306 17.655-49.478-.003-2.785-.163-5.567-.48-8.333 0-.26-.048-.519-.077-.787-.058-.634-.125-1.287-.192-1.92-.048-.5-.106-1.008-.154-1.536s-.134-1.248-.201-1.92c-.068-.672-.125-1.095-.183-1.652-.163-1.459-.336-2.976-.518-4.54-.077-.672-.163-1.344-.24-2.026v-.24c-.077-.672-.163-1.354-.25-2.045-.23-1.958-.48-3.958-.749-6 0-.393-.096-.797-.153-1.2-.058-.403-.135-1.065-.211-1.603-.077-.538-.164-1.258-.24-1.92-.298-2.198-.596-4.406-.903-6.605-.096-.73-.201-1.469-.307-2.198-.326-2.371-.672-4.714-1.008-7.018l-.173-1.171c-.077-.5-.153-.96-.22-1.469l-.26-1.651c-.125-.826-.25-1.632-.374-2.438v-.125c-.26-1.661-.519-3.255-.778-4.8-.077-.519-.163-1.018-.25-1.517-.086-.5-.153-.854-.249-1.277.005-.08.005-.16 0-.24-.096-.451-.202-.893-.326-1.344-.125-.451-.173-.662-.27-.96-.095-.297-.191-.633-.297-.96-.105-.326-.173-.537-.269-.806-.096-.269-.192-.538-.297-.797-.106-.26-.298-.787-.47-1.18-.173-.394-.346-.807-.538-1.21-.192-.404-.375-.797-.576-1.19-8.809-17.182-8.412-37.635 1.056-54.462 12.029-.902 22.934 6.72 34.733 4.445l15.302 5.232c.106.115.202.23.326.355-8.976 13.997-10.694 49.325-10.694 49.325s-.106.221-.096.73z"/>
            <path fill="#222E3A" fill-rule="nonzero" d="M77.934 254.955c.058 6.595.346 52.665-.154 61.44-.528 9.552-3.398 17.097-6.48 23.539-9.782 20.4-32.438 67.622-39.513 82.282-.336.7-.643 1.324-.912 1.872l-1.018 2.112c-.98-.322-1.922-.747-2.813-1.268-.45-.259-.892-.547-1.334-.854-2.774-1.992-5.142-4.494-6.98-7.373-.537-.806-1.036-1.632-1.516-2.438-2.234-3.941-4-8.13-5.26-12.48 8.169-2.141 13.89-14.266 18.911-28.301 5.12-16.813 11.005-33.306 17.655-49.478-.003-2.785-.163-5.567-.48-8.333 0-.25-.048-.519-.077-.787-.058-.634-.125-1.287-.192-1.92-.048-.5-.106-1.008-.154-1.536s-.134-1.248-.201-1.92c-.068-.672-.125-1.095-.183-1.652-.163-1.459-.336-2.976-.518-4.54-.077-.663-.154-1.344-.24-2.026v-.24c-.077-.672-.163-1.354-.25-2.045-.23-1.958-.48-3.958-.749-6 0-.393-.096-.797-.153-1.2-.058-.403-.135-1.065-.211-1.603-.077-.538-.164-1.258-.24-1.92-.298-2.198-.596-4.406-.903-6.605-.096-.73-.201-1.469-.307-2.198-.326-2.371-.672-4.714-1.008-7.018l-.173-1.171c-.077-.5-.153-.96-.22-1.469l-.26-1.651c-.125-.826-.25-1.632-.374-2.438v-.125c-.26-1.661-.519-3.255-.778-4.8-.077-.509-.163-1.018-.25-1.517-.086-.5-.153-.854-.249-1.277.005-.08.005-.16 0-.24-.096-.451-.202-.893-.326-1.344-.125-.451-.173-.662-.27-.96-.095-.297-.191-.633-.297-.96-.105-.326-.173-.537-.269-.806-.096-.269-.192-.538-.297-.797-.106-.26-.298-.787-.47-1.18-.173-.394-.346-.817-.538-1.21-.192-.394-.375-.797-.576-1.19-8.809-17.182-8.412-37.635 1.056-54.462 12.029-.902 22.934 6.72 34.733 4.445l15.302 5.232c.106.115.202.23.326.355-8.976 13.997-10.694 49.325-10.694 49.325s-.106.221-.096.73z" opacity=".78"/>
            <path fill="#364A6B" fill-rule="nonzero" d="M185.167 267.3c.085 6.941-3.899 13.652-10.667 17.367-3.84 2.102-10.56 2.17-14.15 1.219-.365-.101-.724-.223-1.075-.365-2.515-1.037-5.06-2.045-7.613-3.005-3.072-1.152-6.163-2.227-9.235-3.148-7.411-2.439-36.115-12.394-41.664-14.4-2.429-.893-5.107-1.824-7.949-2.813-12.067-4.224-27.187-9.514-38.909-17.127-4.297-2.775-8.108-6.239-11.28-10.252-1.879-2.396-3.488-4.99-4.8-7.738-.288-.605-.547-1.21-.787-1.843-3.965-10.263-1.728-24.173 2.784-34.07l2.88-6.212c.902.211 24.403 8.15 42.106 14.141 10.828 3.648 19.478 6.586 19.478 6.586s.23.259.365.393c10.291 10.954 44.333 29.607 65.923 40.858 4.879 2.57 8.97 6.415 11.837 11.126 1.743 2.787 2.695 5.996 2.756 9.283z"/>
            <path fill="#FFF" fill-rule="nonzero" d="M113.29 205.121c0-.345.058-.72.097-1.142.499-5.971 1.728-16.8 2.793-25.815.356-2.956.682-5.76.96-8.064l.432-3.494c0-.192.048-.384.068-.576 0-.346.076-.653.115-.96v-.086c0-.308.067-.596.096-.826.009-.112.009-.224 0-.336 0-.202.048-.365.067-.49.02-.124 0-.192 0-.288 2.567-1.914 5.016-3.982 7.334-6.192.548-.518 1.076-1.056 1.604-1.584 4.684-4.8 8.64-10.176 8.899-14.457.057-.595.24-1.738.48-3.283.201-1.392.47-3.12.739-5.05.077-.566.154-1.152.24-1.757 1.334-9.936 2.688-24-.115-28.598 0 0-2.621-.826-5.914-2.026-3.482-1.184-6.89-2.575-10.205-4.166-2.646-1.587-5.171-3.368-7.555-5.328-8.256 12.48-17.904 8.025-22.349 3.024-1.297-1.522-2.276-3.288-2.88-5.194l-12.48 3.475c-1.92.548-3.993 1.095-6 1.719-8.75 2.73-15.215 10.157-16.713 19.2-.326 1.953-.432 3.937-.317 5.913l.816 14.4c2.056 12.546.566 25.417-4.3 37.162-.126.298-.24.595-.375.883-.509 1.19-1.037 2.352-1.613 3.504l-5.002 10.042v.077l5.232 2.812c5.138 2.799 10.452 5.262 15.908 7.373 7.216 2.813 14.688 4.922 22.31 6.298h.058c1.728.307 3.459.573 5.193.797 2.362.326 18.173 4.195 21.504 5.02l.26.068h.307c.182-.586.22-1.316.307-2.055z"/>
            <path fill="#FAFBFE" fill-rule="nonzero" d="M233.886 95.94h-.048c-13.382 15.197-27.053 45.456-37.44 50.112-1.824.807-4.272.874-7.517.308-4.06-.71-9.379-2.41-16.32-4.848.392-.818.861-1.596 1.402-2.324 3.734-5.174 12.24-13.305 12.48-15.734.043-.68.043-1.364 0-2.045.384-.758 1.2-2.275 2.17-4.032 1.987-3.561 4.617-8.16 5.654-9.6 1.69-2.38 3.571-4.723 5.472-7.123 1.9-2.4 3.84-4.877 5.597-7.306.355-.49.662-1.065 1.017-1.555 1.055-1.969 1.979-4.005 2.765-6.096.384-.96.758-1.92 1.142-2.774.446-1.134.965-2.237 1.556-3.303 1.685-3.599 4.846-6.292 8.667-7.385 3.82-1.093 7.928-.48 11.262 1.683 1.58.998 2.912 2.34 3.898 3.926.288.407.536.841.739 1.296.547 1.114.944 2.296 1.18 3.514.124.634.204 1.275.24 1.92v1.21c-.038 1.107-.209 2.206-.508 3.273-.128.482-.281.956-.46 1.421-.642 1.985-1.64 3.837-2.948 5.462z"/>
            <path fill="#FFF" fill-rule="nonzero" d="M196.945 138.737c-1.1 1.152-2.066 2.424-2.88 3.792-1.315 1.968-2.659 3.715-5.203 3.84h-.192c-3.368.158-6.738-.244-9.974-1.19-.24-.067-.48-.135-.72-.221l-.74-.23-40.176-12.279-4.656-1.43-4.8-1.479-7.113-2.179-3.543-1.392c-12.48-4.387-13.545-17.549-5.29-23.913.69-.536 1.441-.987 2.238-1.344 5.26-2.496 12.48-1.68 17.414-.644 1.869.387 3.712.887 5.52 1.498 0 0 44.842 14.62 50.054 15.523.586.106 1.162.192 1.757.279 4.447.69 8.963.813 13.44.364 1.341-.139 2.674-.347 3.994-.624l-1.92 6.058c-.66 2.955-1.578 5.846-2.746 8.64-.873 2.653-2.41 5.039-4.464 6.931z"/>
            <path fill="#DCE6F4" fill-rule="nonzero" d="M233.867 95.998c-17.347 19.958-23.443 45.917-35.674 50.486-4.905 1.834-8.342 2.295-19.2-1.161l-.288-.087c-.24-.067-.48-.134-.72-.22l-.739-.23-40.176-12.28-4.656-1.43-4.8-1.478-2.506-.96c2.228.346 4.394.7 6.5 1.066 1.97.332 3.89.675 5.76 1.027 15.916 2.976 27.84 6.153 36.662 8.486 12.806 3.389 18.98 4.973 21.062 1.44 3.408-5.76.173-7.555 4.368-17.731.761-1.772 1.634-3.493 2.612-5.155 5.078-8.89 14.572-21.83 18.624-27.264l1.92-2.535c4.425-4.924 8.016-5.76 13.065-10.022.317.46.49.874.74 1.306.378.726.683 1.488.911 2.275.058.192.106.393.154.585.133.547.233 1.102.298 1.661 0 .279.057.547.076.816v1.239c.014.262.014.525 0 .787 0 .269-.057.547-.105.816-.048.269-.067.46-.115.681-.048.221-.135.644-.23.96-.012.05-.029.098-.049.144-.125.452-.288.855-.422 1.316v.076c-.683 1.97-1.725 3.796-3.072 5.386z"/>
            <path fill="#DCE6F4" fill-rule="nonzero" d="M233.867 95.998c-17.347 19.958-23.443 45.917-35.674 50.486-4.905 1.834-8.342 2.295-19.2-1.161l-.288-.087c-.24-.067-.48-.134-.72-.22l-.739-.23-40.176-12.28c-.269 1.92-.538 3.658-.74 5.05-1.334-2.256-2.64-4.425-3.916-6.48-.288-.45-.557-.902-.845-1.353-5.069-8.093-9.6-14.506-13.113-19.114-4.293-5.711-6.075-12.924-4.935-19.977 2.384 1.96 4.909 3.74 7.555 5.328 3.316 1.591 6.723 2.982 10.205 4.166 1.869.387 3.712.887 5.52 1.498 0 0 44.842 14.62 50.055 15.523.585.105 1.161.192 1.756.278 1.988-3.561 4.618-8.16 5.655-9.6 1.69-2.38 3.571-4.723 5.472-7.123 1.9-2.4 3.84-4.877 5.597-7.306.355-.49.662-1.065 1.017-1.555 1.055-1.969 1.979-4.005 2.765-6.096l24.749 10.253z"/>
            <path fill="#FF9873" fill-rule="nonzero" d="M94.801 51.665c.864-.441 1.709-.787 2.467-1.2.96-.49 1.776-.96 2.592-1.488.164-.125.327-.211.5-.336.172-.125.268-.173.432-.297.138-.13.29-.246.45-.346.711-.518 1.431-1.027 2.103-1.546.27-.19.53-.395.778-.614.602-.475 1.17-.991 1.699-1.546l.288-.316c.115-.135.173-.173.288-.317.108-.091.204-.194.288-.307.182-.23.365-.461.538-.644.301-.293.575-.614.816-.96.182-.23.316-.46.49-.643.297-.365.604-.835.902-1.248.182-.23.259-.47.432-.643.374-.557.748-1.114 1.065-1.68.112-.21.237-.411.375-.605.499-.797.902-1.603 1.401-2.39.202-.375.442-.701.643-1.075l.116-.192c.057-.096.201-.375.316-.51.298-.364.548-.786.797-1.16.135.02.267.056.394.105h.144c.096.057.192.067.288.134.083.254.186.501.307.74 0-.106-.106-.365-.211-.73.192.125.326.192.47.307v.058c.013.034.013.071 0 .105v.144c-.888 2.267-1.967 4.454-3.225 6.538-1.271 2.071-2.758 4.002-4.436 5.76-.839.877-1.744 1.69-2.707 2.429-.99.73-2.029 1.39-3.11 1.977-.115.087-.173.173-.087.288.064.093.184.129.288.087 2.314-1 4.463-2.343 6.375-3.984 1.904-1.66 3.605-3.539 5.069-5.597 1.504-2.069 2.833-4.259 3.974-6.547.067-.135.134-.23.202-.375.076.163.201.375.326.595.094.138.177.283.25.432v.212c.124.21.201.422.326.643l.24.48c.115.269.278.585.394.902.051.068.093.142.124.221.064.116.115.238.154.365.077.235.167.466.269.691.115.26.192.47.307.74.365 1.106.66 2.235.883 3.378.346 1.7.672 3.495.912 4.8.067.317.125.624.183.96.057.336.134.96.22 1.44.016.24.055.478.116.71v.212c-.01.223.013.446.067.662 0 .154.057.356.086.519.029.163.058.355.087.509-.005.254.014.508.057.758 0 .154.058.365.087.518.028.154 0 .202.057.356.058.153 0 .201.058.355v.105c.021.05.021.105 0 .154v1.718c.039.131.055.267.048.404 0 .259 0 .556.048.816v2.918c0 .605-.048 1.2-.115 1.795-.701 6.797-3.168 12.48-8.439 14.535l-.576 4.646-.845 6.778c-.77 6.39-6.223 11.177-12.659 11.114-6.435-.065-11.793-4.96-12.435-11.364 1.642-3.514 6.893-10.195 2.803-20.16-.125-.22-.144-.422-.269-.643l-.595-1.277v-.106c-.25-.432-.49-.912-.787-1.353-.211-.279-.374-.595-.586-.96-.21-.365-.633-.96-.96-1.479.615-4.492 3.956-8.352 6.653-9.475z"/>
            <path fill="#2C2C2E" fill-rule="nonzero" d="M118.715 37.188c.403.807.797 1.604 1.152 2.458-.355-.826-.816-1.66-1.152-2.458z"/>
            <path fill="#D8775D" fill-rule="nonzero" d="M92.17 65.883c.021.056.047.111.078.163.288.874.48 1.718.681 2.525 1.642 1.478 7.402 6.653 15.581 8.227.75.148 1.511.244 2.275.288-1.363.749-4.8 2.064-10.32.854-2.14 7.412-8.198 14.112-5.971 18.605-.096 0-3.936-2.745-5.213-5.625-1.023-2.01-1.417-4.282-1.133-6.519.047-.445.117-.887.212-1.325l2.63-16.05 1.18-1.143z"/>
            <path fill="#FFB69F" fill-rule="nonzero" d="M100.36 73.716c3.552.49 12.096 1.296 15.494-3.408.065-.15.149-.292.25-.422 1.747-2.746.96-7.517.268-9.86-1.632-5.433-.278-7.065.759-10.962l.297-1.172c1.815-6.902-.403-11.299-1.526-15.206v-.048c-.067-.317-1.133-3.456-1.018-4.397 2.723 2.933 4.797 6.407 6.087 10.195.365 1.107.66 2.236.883 3.38.346 1.699.672 3.494.912 4.8 2.88 14.582.96 31.93-14.227 30.038-3.349-.693-6.606-1.772-9.706-3.216.517.04 1.029.133 1.527.278z"/>
            <path fill="#D8775D" fill-rule="nonzero" d="M102.241 53.652c-.259.116-.22.567.096.51 5.76-.96 15.475-4.906 19.2-13.335 0 0-.413-1.507-.7-2.448-1.253-3.804-3.324-7.288-6.068-10.205-.115.96-3.84-3.283-5.827-3.638L87.726 50.09c4.8 3.264 13.44 1.824 18.672-.643 3.84-1.776 5.866-3.946 8.918-7.085 1.085-1.066 1.258 0 .816.7-4.435 7.277-8.534 8.381-13.89 10.59z"/>
            <path fill="#2C2C2E" fill-rule="nonzero" d="M130.772 44.782c.02-2.399.287-4.789.797-7.133 1.978-8.697-2.333-11.52-4.589-12.432-2.457-1.277-7.852-7.68-18.528-10.685.392-5.921-3.093-11.416-8.616-13.587-5.524-2.17-11.817-.518-15.562 4.086-3.744 4.604-4.08 11.102-.83 16.068-3.124 2.016-5.951 4.459-8.4 7.257-1.626 1.73-3.017 3.667-4.137 5.76-.37.615-.69 1.257-.96 1.92-1.864 3.49-3.225 7.227-4.042 11.098-2.78 7.882-6.883 15.232-12.134 21.734-1.757 2.093-3.706 4.416-5.827 6.874-1.876 1.773-3.773 3.546-5.693 5.318-3.744 3.447-7.536 6.893-11.107 10.56l-.682.682c-.25.22-.485.457-.7.71l-1.24 1.508c-.806 1.021-1.528 2.106-2.16 3.244-1.302 2.234-2.324 4.62-3.042 7.104-1.502 4.973-1.95 10.205-1.316 15.36 0 .106.077.212.24.183.164-.029.202-.077.173-.24-.477-5.034.102-10.112 1.7-14.909.834-2.366 1.909-4.64 3.206-6.787 1.307-2.127 2.9-4.065 4.733-5.76 2.323-2.131 4.742-4.195 7.152-6.26-9.658 13.076-17.847 29.242-11.856 47.319 5.625 19.056 21.504 27.014 24.739 28.426.307.144.499.21.557.24v-.567l.403-2.985c1.766-13.162 1.286-16.512.422-32.775 0-.605-.48-8.505-.47-9.6-.091-10.533 6.756-19.872 16.829-22.953 2.006-.615 4.032-1.172 6-1.719l12.48-3.475c.21-.26.384-.528.556-.787 1.69-2.755 7.344-9.456 2.756-20.583-.135-.21-.154-.422-.279-.633-.192-.48-.393-.855-.595-1.287-.68-1.337-1.46-2.62-2.333-3.84.406-4.151 2.86-7.825 6.538-9.792 13.622-6.096 15.36-13.152 19.9-19.833 0 0 1.613.355 1.402.873-.888 2.269-1.97 4.456-3.235 6.538-1.264 2.073-2.748 4.004-4.426 5.76-.855.867-1.763 1.681-2.716 2.438-1 .792-2.051 1.513-3.15 2.16-.114.077-.172.173-.086.288.07.092.19.127.298.087 1.146-.506 2.256-1.09 3.322-1.747 1.066-.677 2.086-1.424 3.052-2.237 1.9-1.662 3.597-3.54 5.06-5.597 1.588-2.18 2.979-4.496 4.156-6.922.988 1.692 1.808 3.477 2.448 5.328.37 1.106.669 2.235.893 3.38.346 1.699.672 3.494.912 4.8.995 4.893 1.318 9.899.96 14.88 4.48-4.469 7.008-10.53 7.027-16.858z"/>
            <path fill="#2C2C2E" fill-rule="nonzero" d="M90.865 62.542c-.193-.31-.37-.63-.528-.96.159.33.335.65.528.96z"/>
            <ellipse cx="91.23" cy="56.672" fill="#FF9873" fill-rule="nonzero" rx="5.184" ry="6.029" transform="rotate(-14.03 91.23 56.672)"/>
            <path fill="#D8775D" fill-rule="nonzero" d="M90.126 58.577c-.548-.268-.974-.735-1.19-1.305-.463-1.183.104-2.518 1.276-3.005.827-.247 1.722-.023 2.333.585.14.166.135.409-.01.569-.146.16-.388.188-.566.065-.372-.397-.94-.546-1.459-.384-.747.314-1.102 1.17-.797 1.92.278.724 1.083 1.095 1.815.835.105-.05.226-.056.335-.014.11.041.197.127.24.235.048.107.05.228.007.337-.043.108-.129.195-.237.239-.326.114-.673.157-1.017.125-.249-.048-.493-.116-.73-.202z"/>
            <path fill="#DCE6F4" fill-rule="nonzero" d="M117.956 163.361v-.288c2.567-1.915 5.017-3.982 7.335-6.192.547-.518 1.075-1.056 1.603-1.584L81.832 132.18l2.025 1.277c4.263 4.956 9.22 9.27 14.717 12.807 6.192 3.922 11.81 8.685 16.694 14.15 1.565 1.738 2.679 2.986 2.688 2.947z"/>
            <path fill="#FFF" fill-rule="nonzero" d="M204.433 106.395c-.106-.49-.267-.967-.48-1.421-.673-1.74-1.722-3.31-3.072-4.598-1.038-.99-2.224-1.812-3.513-2.439-5.983-2.968-13.236-1.168-17.136 4.253-.788.93-1.513 1.911-2.17 2.938-1.691 2.756-3.534 5.416-5.52 7.968-.442.412-.845.96-1.286 1.334-2.199 2.054-4.56 4.118-6.884 6.115-2.323 1.997-4.627 3.927-6.72 5.952-1.286 1.2-4.752 5.203-7.372 8.323-.567-.192-1.124-.393-1.68-.604-4.944-1.92-46.186-24.759-46.186-24.759s-15.36-9.033-24.797-4.31c-9.437 4.723-10.752 17.808.634 24.49.067 0 3.158 1.987 3.216 2.035l6.566 3.494 45.888 24.365c.547.307 1.075.585 1.603.854 10.023 5.463 13.44 5.664 18.653 4.8 12.883-2.16 23.799-26.486 44.621-42.777 1.554-1.311 2.856-2.896 3.84-4.676 0-.057.058-.096.077-.144.256-.406.49-.826.7-1.257v-.048c1.546-3.058 1.908-6.58 1.018-9.888z"/>
            <path fill="#DCE6F4" fill-rule="nonzero" d="M204.404 106.452c-.163-.47-.259-.96-.48-1.41-5.76 3.206-9.446 3.34-14.736 7.334 0 0-23.51 20.937-29.376 29.913-6.048 9.197-3.216 11.52-7.68 16.589-5.03 5.683-20.534-8.544-66.403-25.114l2.275 1.402 45.888 24.365c.548.307 1.076.585 1.604.854 10.022 5.463 13.44 5.664 18.652 4.8 12.884-2.16 23.799-26.486 44.621-42.777 1.555-1.311 2.856-2.896 3.84-4.676.25-.508.538-.96.787-1.42 1.556-3.046 1.916-6.563 1.008-9.86zM84.49 191.643c-8.64-3.907-15.36-10.983-16.934-20.314-1.315-7.881-3.897-17.424-9.273-25.843l-4.656-12.288c2.055 12.546.566 25.417-4.301 37.162-.125.297-.24.595-.374.883-.51 1.19-1.037 2.352-1.613 3.504l-5.002 10.041v.077l5.232 2.813c5.138 2.798 10.451 5.261 15.907 7.373h.058c5.247 2.024 10.626 3.69 16.1 4.982l6.153 1.363h.057c4.455.96 10.464 2.295 15.716 3.437-1.71-2.486-7.94-9.043-17.07-13.19z"/>
            <path fill="#576D90" fill-rule="nonzero" d="M185.492 420.401c-1.006 1.148-2.265 2.049-3.676 2.63-1.536.594-3.156.94-4.8 1.028-5.123-.156-10.193-1.092-15.034-2.775-6.003-1.957-12.204-3.245-18.49-3.84-4.45-.362-8.83-1.331-13.017-2.88l3.84-23.539 7.997 3.293c3.008-.03 5.968-.767 8.64-2.15v-.173l.576 5.52c6.044 5.435 12.785 10.042 20.044 13.699l10.138 4.992c1.907.642 3.34 2.232 3.782 4.195z"/>
            <path fill="#E8EBF0" fill-rule="nonzero" d="M185.8 424.596c-.221 1.536-2.487 2.88-5.29 3.59-4.291 1.326-13.517-.364-19.373-2.12-5.508-1.703-11.181-2.813-16.925-3.313-4.88-.27-9.683-1.34-14.217-3.168l.451-5.26c4.188 1.568 8.571 2.553 13.027 2.927 6.294.517 12.501 1.807 18.48 3.84 4.493 1.517 10.176 3.13 15.034 2.775 1.642-.1 3.26-.446 4.8-1.027 1.445-.521 2.717-1.432 3.677-2.63.199 1.454.311 2.919.336 4.386z"/>
            <path fill="#364A6B" fill-rule="nonzero" d="M176.123 423.617c-11.06-1.545-11.75-4.022-18.557-7.229-5.587-2.63-9.178-3.379-12.403-6.01-3.418-2.946-3.082-7.526-2.707-13.948.063-.96.046-1.923-.048-2.88-3.178.24-8.112-2.602-8.112-2.602l-3.84 23.54c4.187 1.548 8.567 2.517 13.017 2.88 6.297.517 12.507 1.807 18.49 3.84 4.493 1.526 10.166 3.13 15.033 2.774-.01-.086-.192-.202-.873-.365z"/>
            <path fill="#FF9873" fill-rule="nonzero" d="M156.001 378.92c-3.576 1.298-7.334 2.027-11.136 2.16-1.69 0-7.373-6.365-7.891-6.5 0 0-2.88 16.388-2.678 16.378.201-.01 4.636 3.37 8.17 3.274 3.007-.027 5.967-.76 8.64-2.141L156 378.92z"/>
            <path fill="#DB6D4F" fill-rule="nonzero" d="M144.856 380.916c-1.69-.048-7.373-6.374-7.892-6.499 0 0-2.88 16.387-2.678 16.32 0 0 4.627 3.37 7.997 3.293.681-4.387 1.555-8.65 2.573-13.114z"/>
            <path fill="#364A6B" fill-rule="nonzero" d="M185.857 283.035c-1.747 9.35-5.683 24.192-10.09 39.667-.067.24-.134.49-.21.73-5.597 19.66-11.924 40.204-15.505 51.6.005.048.005.096 0 .144-.96 3.187-1.766 5.644-2.246 7.161l-.163.48-.384 1.229-.087-.048-4.272-2.266-.374-.201-13.325-7.104c.71-7.075 1.584-14.803 2.544-22.733 3.245-26.88 7.45-55.958 9.955-69.187.47-2.42.874-4.31 1.2-5.559.812-3.172 1.967-6.246 3.447-9.168 5.376-10.387 13.152-12.268 18.893-10.492l.21.067c2.392.723 4.56 2.045 6.298 3.84 1.544 1.58 2.683 3.51 3.322 5.625.054.145.098.292.134.442 1.393 5.143 1.616 10.532.653 15.773z"/>
            <path fill="#364A6B" fill-rule="nonzero" d="M133.45 378.89s8.017 8.17 17.406 7.489c1.596-.14 3.159-.54 4.627-1.181.499-.211 1.142-.595 1.632-.797.04-.25.14-.486.288-.691l.144-.355.269-.864.115-.682.144-.345.278-.864.403-1.373.826-2.592.413-1.21c.153-.182.144-.345.288-.691l-3.024-4.502-14.755-22.004c-.413.03-4.743 23.261-9.053 30.663z"/>
            <path fill="#576D90" fill-rule="nonzero" d="M185.857 283.035c-1.747 9.35-5.683 24.192-10.09 39.667-.067.24-.134.49-.21.73-5.76 19.43-12.097 39.648-15.495 51.139.02.153.02.308 0 .46.004.049.004.097 0 .145l-.067.086-.423 1.21-.816 2.582-.412 1.382-.27.855-.134.355-.124.691-.164.48-.115.375-.144.345c-.085.147-.155.301-.211.461-.043.07-.069.149-.077.23l-1.622.797c-1.469.65-3.036 1.05-4.637 1.181.72-1.469 1.42-2.957 2.064-4.474 1.64-3.747 3.037-7.594 4.186-11.52 4.8-15.177 9.801-34.243 11.078-39.734 5.338-21.456 10.704-38.026 12.317-48.086 1.92-9.812 2.525-15.572 1.267-21.197 1.543 1.58 2.683 3.51 3.322 5.625 1.507 5.273 1.773 10.822.777 16.215z"/>
            <path fill="#222E3A" fill-rule="nonzero" d="M165.899 269.537c.222-.117.496-.064.659.126.163.191.172.47.022.671-5.241 6.538-6.23 12.134-7.257 15.744-2.621 9.197-7.392 26.65-9.6 39.158-1.498 9.137-4.203 18.034-8.045 26.458 3.245-26.88 7.45-55.958 9.955-69.187-3.072-1.152-6.163-2.227-9.235-3.149-7.411-2.438-36.115-12.394-41.664-14.4-12.691-4.675-32.371-10.56-46.858-19.94-4.297-2.774-8.108-6.238-11.28-10.252 0 0 37.565 19.152 100.35 34.195 3.004.72 17.183 3.898 19.487 2.573l3.466-1.997z" opacity=".78"/>
            <path fill="#178A9E" d="M250.945 133.86L243.947 131.681 238.782 130.078 235.345 135.166 231.486 140.888 223.105 115.409 227.886 114.584 237.476 112.942 243.102 111.972z"/>
            <path fill="#149BAD" d="M243.947 131.681L238.782 130.078 235.345 135.166 227.886 114.584 237.476 112.942z"/>
            <path fill="#178A9E" d="M201.342 133.86L208.34 131.681 213.505 130.078 216.942 135.166 220.801 140.888 229.182 115.409 224.401 114.584 214.811 112.942 209.185 111.972z"/>
            <path fill="#149BAD" d="M208.34 131.681L213.505 130.078 216.942 135.166 224.401 114.584 214.811 112.942z"/>
            <path fill="#B35818" d="M260.353 84.45c.009 5.906-1.584 11.706-4.608 16.78-.558.953-1.167 1.876-1.824 2.765-.441.595-.902 1.18-1.382 1.737-2.13 2.497-4.618 4.664-7.383 6.432-13.01 8.308-30.046 6.451-40.96-4.465-10.914-10.916-12.768-27.954-4.457-40.962 1.772-2.759 3.943-5.24 6.441-7.363.557-.48 1.143-.96 1.738-1.382.883-.663 1.803-1.275 2.755-1.834 10.167-6.025 22.785-6.133 33.054-.284 10.27 5.85 16.612 16.757 16.617 28.575h.01z"/>
            <path fill="#E48C44" d="M248.036 84.45c0 .604 0 1.209-.086 1.804-.921 10.629-9.818 18.788-20.486 18.788-10.669 0-19.566-8.16-20.487-18.788-.057-.595-.086-1.2-.086-1.805 0-11.362 9.21-20.573 20.573-20.573 11.362 0 20.572 9.211 20.572 20.573z"/>
            <path fill="#F4B483" d="M247.95 86.254c.736 8.448-3.789 16.481-11.395 20.23-7.606 3.75-16.734 2.444-22.985-3.286-6.251-5.73-8.344-14.709-5.27-22.612 3.074-7.903 10.684-13.11 19.164-13.11 10.665 0 19.56 8.153 20.486 18.778z"/>
            <path fill="#B35818" d="M240.097 102.305L227.55 95.796 215.07 102.43 217.393 88.491 207.227 78.68 221.204 76.577 227.396 63.876 233.713 76.51 247.71 78.478 237.63 88.395z"/>
            <path fill="#E48C44" d="M210.692 56.148l9.178 9.178c-1.064.42-2.092.927-3.072 1.517l-8.86-8.861c.88-.665 1.8-1.277 2.754-1.834zM255.755 101.22c-.559.954-1.168 1.876-1.824 2.765l-8.87-8.88c.592-.973 1.102-1.995 1.526-3.053l9.168 9.168zM206.19 59.364l8.765 8.765c-2.644 2.023-4.756 4.659-6.154 7.68l-9.053-9.062c1.771-2.766 3.942-5.254 6.442-7.383zM252.548 105.723c-2.13 2.496-4.617 4.664-7.382 6.432l-9.053-9.053c3.02-1.394 5.657-3.503 7.68-6.144l8.755 8.765z" opacity=".57"/>
            <path fill="#FF9873" fill-rule="nonzero" d="M189.592 108.641c.602 1.884 1.93 3.45 3.691 4.35 1.76.9 3.808 1.063 5.688.45.413-.201.845-.269 1.113-.451 2.074-.893 5.117-4.282 7.239-6.94 1.757-2.362 10.041-6.049 14.928-6.778.902-.16 1.566-.937 1.584-1.853v-.163c-.01-.701-.4-1.341-1.018-1.67l-1.056-.538c-.598-.304-.986-.905-1.017-1.575-.042-.912-.743-1.658-1.652-1.757-2.332-.259-6.72-.566-9.82.365-2.247.768-5.213 1.632-5.645 1.7.125-.164 1.171-1.057 2.755-2.314 1.937-1.372 4.202-2.207 6.566-2.42l3.466-.508c.288 0 .413-.202.672-.394.247-.227.388-.547.388-.883 0-.336-.141-.656-.388-.883-.22-.3-.607-.425-.96-.307h-6.182c-2.454.024-4.826.888-6.72 2.448l-1.728 1.276c-3.001 2.22-5.643 4.889-7.834 7.91l-2.813 3.937c-1.489 2.008-1.954 4.597-1.257 6.998zM263.656 74.13c-.576-.96.547-2.727-.855-4.302-.605-.316-1.043-.88-1.2-1.545-.23-1.214-1.03-2.243-2.15-2.765-.845-.403-.663-1.085-1.46-1.92-.364-.319-.83-.499-1.315-.509 0 0-6.825-5.904-8.102-4.483-.864.96 2.256 4.598 4.406 6.902-2.707 2.88-4.8 7.268-3.916 8.055.45.365 1.2-.048 1.756-.47 1.785-1.446 3.478-3 5.07-4.657-2.986 3.917-5.617 5.76-7.969 8.64-.825.96-.067 2.88 1.824 2.122.596-.24 1.156-.563 1.661-.96l-2.093 2.016c-.327.276-.495.697-.45 1.122.047.426.302.8.68 1 .273.333.67.54 1.1.575.429.034.853-.108 1.176-.393.294-.121.58-.262.854-.422-.047.506.265.977.749 1.132 1.066.23 5.99-1.641 8.64-4.406 1.286-1.488 2.38-3.043 1.594-4.733z"/>
            <ellipse cx="35.088" cy="415.878" fill="#364A6B" fill-rule="nonzero" opacity=".1" rx="19.432" ry="4.4"/>
        </g>
        <g>
            <path fill="#178A9E" d="M56.371 82.298L49.373 80.119 44.208 78.516 40.771 83.604 36.912 89.325 28.531 63.847 33.312 63.021 42.902 61.38 48.528 60.41z" transform="translate(0 -1) translate(451.258 265.335)"/>
            <path fill="#149BAD" d="M49.373 80.119L44.208 78.516 40.771 83.604 33.312 63.021 42.902 61.38z" transform="translate(0 -1) translate(451.258 265.335)"/>
            <path fill="#178A9E" d="M6.768 82.298L13.766 80.119 18.931 78.516 22.368 83.604 26.227 89.325 34.608 63.847 29.827 63.021 20.237 61.38 14.611 60.41z" transform="translate(0 -1) translate(451.258 265.335)"/>
            <path fill="#149BAD" d="M13.766 80.119L18.931 78.516 22.368 83.604 29.827 63.021 20.237 61.38z" transform="translate(0 -1) translate(451.258 265.335)"/>
            <path fill="#F3B919" d="M65.789 32.887c.008 5.907-1.584 11.706-4.608 16.78-.559.954-1.168 1.877-1.824 2.766-.442.595-.903 1.18-1.383 1.737-2.13 2.497-4.617 4.664-7.382 6.432-13.01 8.308-30.047 6.45-40.96-4.465C-1.284 45.22-3.137 28.183 5.173 15.175c1.773-2.759 3.943-5.24 6.442-7.363.557-.48 1.142-.96 1.738-1.383.883-.662 1.803-1.275 2.755-1.833 10.167-6.025 22.785-6.133 33.054-.284 10.269 5.85 16.612 16.757 16.616 28.575h.01z" transform="translate(0 -1) translate(451.258 265.335)"/>
            <path fill="#E2AC24" d="M53.472 32.887c0 .605 0 1.21-.086 1.805-.922 10.628-9.818 18.787-20.487 18.787-10.668 0-19.565-8.159-20.486-18.787-.058-.595-.087-1.2-.087-1.805 0-11.362 9.211-20.573 20.573-20.573s20.573 9.21 20.573 20.573z" transform="translate(0 -1) translate(451.258 265.335)"/>
            <path fill="#FCDF6B" d="M53.386 34.692c.736 8.451-3.793 16.487-11.404 20.234-7.611 3.747-16.742 2.435-22.99-3.303-6.249-5.738-8.332-14.724-5.246-22.626 3.086-7.902 10.708-13.098 19.192-13.083 10.65.02 19.523 8.168 20.448 18.778z" transform="translate(0 -1) translate(451.258 265.335)"/>
            <path fill="#F3B919" d="M45.523 50.753L32.986 44.234 20.506 50.877 22.829 36.938 12.653 27.117 26.63 25.015 32.822 12.314 39.139 24.957 53.136 26.925 43.066 36.833z" transform="translate(0 -1) translate(451.258 265.335)"/>
            <path fill="#FAD237" d="M16.118 4.567l9.178 9.178c-1.064.42-2.091.927-3.072 1.516l-8.86-8.86c.88-.665 1.8-1.278 2.754-1.834zM61.18 49.687c-.558.953-1.167 1.876-1.823 2.765l-8.87-8.88c.592-.974 1.102-1.995 1.526-3.053l9.168 9.168zM11.616 7.812l8.765 8.765c-2.644 2.022-4.756 4.658-6.154 7.68l-9.053-9.063c1.771-2.765 3.942-5.253 6.442-7.382zM57.974 54.17c-2.13 2.497-4.617 4.664-7.382 6.432L41.54 51.55c3.021-1.394 5.657-3.503 7.68-6.144l8.755 8.765z" transform="translate(0 -1) translate(451.258 265.335)"/>
        </g>
        <g>
            <path fill="#178A9E" d="M56.381 82.298L49.382 80.119 44.218 78.516 40.781 83.604 36.922 89.325 28.541 63.847 33.322 63.021 42.912 61.38 48.538 60.41z" transform="translate(0 -1) translate(286.118 326.007)"/>
            <path fill="#149BAD" d="M49.382 80.119L44.218 78.516 40.781 83.604 33.322 63.021 42.912 61.38z" transform="translate(0 -1) translate(286.118 326.007)"/>
            <path fill="#178A9E" d="M6.778 82.298L13.776 80.119 18.941 78.516 22.378 83.604 26.237 89.325 34.618 63.847 29.837 63.021 20.246 61.38 14.621 60.41z" transform="translate(0 -1) translate(286.118 326.007)"/>
            <path fill="#149BAD" d="M13.776 80.119L18.941 78.516 22.378 83.604 29.837 63.021 20.246 61.38z" transform="translate(0 -1) translate(286.118 326.007)"/>
            <path fill="#B5BCC6" d="M65.789 32.887c.008 5.907-1.584 11.706-4.608 16.78-.559.954-1.168 1.877-1.824 2.766-.442.595-.903 1.18-1.383 1.737-2.13 2.497-4.617 4.664-7.382 6.432-13.01 8.308-30.047 6.45-40.96-4.465C-1.284 45.22-3.137 28.183 5.173 15.175c1.773-2.759 3.943-5.24 6.442-7.363.557-.48 1.142-.96 1.738-1.383.883-.662 1.803-1.275 2.755-1.833 10.167-6.025 22.785-6.133 33.054-.284 10.269 5.85 16.612 16.757 16.616 28.575h.01z" transform="translate(0 -1) translate(286.118 326.007)"/>
            <path fill="#C1C8D1" d="M53.472 32.887c0 .605 0 1.21-.086 1.805-.922 10.628-9.818 18.787-20.487 18.787-10.668 0-19.565-8.159-20.486-18.787-.058-.595-.087-1.2-.087-1.805 0-11.362 9.211-20.573 20.573-20.573s20.573 9.21 20.573 20.573z" transform="translate(0 -1) translate(286.118 326.007)"/>
            <path fill="#DEE0E2" d="M53.386 34.692c.728 8.447-3.803 16.475-11.41 20.217-7.608 3.743-16.732 2.433-22.98-3.3C12.75 45.879 10.66 36.9 13.736 29c3.076-7.901 10.685-13.104 19.163-13.104 10.672 0 19.57 8.164 20.487 18.797z" transform="translate(0 -1) translate(286.118 326.007)"/>
            <path fill="#B5BCC6" d="M45.523 50.743L32.986 44.234 20.506 50.868 22.829 36.929 12.662 27.108 26.64 25.015 32.832 12.305 39.149 24.948 53.136 26.916 43.066 36.833z" transform="translate(0 -1) translate(286.118 326.007)"/>
            <path fill="#DEE0E2" d="M16.128 4.586l9.178 9.178c-1.064.42-2.092.927-3.072 1.517L13.373 6.42c.881-.665 1.801-1.277 2.755-1.834zM61.19 49.658c-.558.953-1.167 1.876-1.824 2.765l-8.87-8.88c.592-.974 1.103-1.995 1.526-3.053l9.168 9.168zM11.626 7.802l8.764 8.765c-2.643 2.023-4.755 4.659-6.153 7.68l-9.053-9.062c1.77-2.766 3.941-5.254 6.442-7.383zM57.984 54.16c-2.13 2.497-4.618 4.665-7.382 6.433l-9.053-9.053c3.02-1.395 5.656-3.503 7.68-6.144l8.755 8.765z" opacity=".57" transform="translate(0 -1) translate(286.118 326.007)"/>
        </g>
    </g>
</svg>
